# xmcd
#
# Track frame offsets:
# 150
# 19750
# 37722
# 49147
# 68180
# 77002
# 93642
# 111152
# 130025
# 146672
# 160470
# 176527
# 190640
# 204377
# 223430
# 237682
# 256750
# 271317
# 284527
# 301765
# 319297
#
# Disc length: 4492 seconds
#
# Revision: 3
# Processed by: cddbd v1.5.2PL0 Copyright (c) Steve Scherf et al.
# Submitted via: TinyPlayer 2.8
#
DISCID=34118a15
DTITLE=Various Artist - The Best Country Ballads in the World... Ever! [Disc 1 of 2]
DYEAR=1998
DGENRE=Country
TTITLE0=The Mavericks - Dance the Night Away
TTITLE1=Billy Swan - I Can Help
TTITLE2=Roy Orbison - Dream Baby (How Long Must I Dream)
TTITLE3=Jimmy Nail - Crocodile Shoes
TTITLE4=The Everly Brothers - Crying in the Rain
TTITLE5=Emmylou Harris - Here, There and Everywhere
TTITLE6=Linda Ronstadt - Blue Bayou
TTITLE7=Nanci Griffith - From a Distance
TTITLE8=Don McLean - Crying
TTITLE9=Glen Campbell - Wichita Lineman
TTITLE10=Joe South - Games People Play
TTITLE11=Elvis Costello and The Attractions - A Good Year for the Roses
TTITLE12=Willie Nelson - Funny How Time Slips Away
TTITLE13=Bobbie Gentry - Ode to Billy Joe
TTITLE14=The Bellamy Brothers - If I Said You Had a Beautiful Body (Would You Hold It Against Me)
TTITLE15=Mindy McCready - Oh Romeo
TTITLE16=Jo Dee Messina - I'm Alright
TTITLE17=Dr. Hook - When You're in Love With a Beautiful Woman
TTITLE18=Trisha Yearwood - There Goes My Baby
TTITLE19=Allison Moorer - A Soft Place to Fall
TTITLE20=Lee Greenwood - The Wind Beneath My Wings
EXTD=UPC: 724384634520 - Catalogue #: VTDCD211,7243 8 46345 2 0 - Label: Virgin TV - ASIN: B00000GAMR - Release Date: 1998 10 26 - Discogs:  - MUSICBRAINZ_ALBUMID: 5d8eb509-8388-4dcd-9b91-80c46dd972ce - Location: ;
EXTT0=
EXTT1=
EXTT2=
EXTT3=
EXTT4=
EXTT5=
EXTT6=
EXTT7=
EXTT8=
EXTT9=
EXTT10=
EXTT11=
EXTT12=
EXTT13=
EXTT14=
EXTT15=
EXTT16=
EXTT17=
EXTT18=
EXTT19=From the "The Horse Whisperer" movie 
EXTT20=
PLAYORDER=
